<svg xmlns="http://www.w3.org/2000/svg" width="1200" height="840" viewBox="0 0 1200 840" font-family="'Segoe UI',Roboto,Helvetica,Arial,sans-serif">
  <defs>
    <marker id="ah" viewBox="0 0 10 10" refX="9" refY="5" markerWidth="7" markerHeight="7" orient="auto-start-reverse">
      <path d="M0,0 L10,5 L0,10 z" fill="#475569"/>
    </marker>
  </defs>
  <rect width="1200" height="840" fill="#f6f7f9"/>

  <text x="600" y="44" text-anchor="middle" font-size="27" font-weight="800" fill="#11182a">Chitin Swarm — Operating Model</text>
  <text x="600" y="69" text-anchor="middle" font-size="13" fill="#6b7280">State-machine board · two agents pull from a shared pool · established 2026-05-20</text>

  <!-- ================= 1. THE BOARD ================= -->
  <text x="40" y="112" font-size="14.5" font-weight="700" fill="#2563eb">1 · THE BOARD — ticket status is the state</text>

  <!-- open pool container -->
  <rect x="30" y="122" width="384" height="86" rx="11" fill="none" stroke="#f59e0b" stroke-width="2" stroke-dasharray="6 5"/>
  <text x="222" y="201" text-anchor="middle" font-size="11" font-weight="700" fill="#b45309">OPEN POOL · unassigned ready + triage — agents pull from here</text>

  <!-- state boxes -->
  <g>
    <rect x="40" y="130" width="168" height="52" rx="9" fill="#fff7e6" stroke="#f59e0b" stroke-width="2"/>
    <text x="124" y="153" text-anchor="middle" font-size="14.5" font-weight="700" fill="#11182a">triage</text>
    <text x="124" y="171" text-anchor="middle" font-size="10.5" fill="#6b7280">ungroomed</text>

    <rect x="238" y="130" width="168" height="52" rx="9" fill="#fff7e6" stroke="#f59e0b" stroke-width="2"/>
    <text x="322" y="153" text-anchor="middle" font-size="14.5" font-weight="700" fill="#11182a">ready</text>
    <text x="322" y="171" text-anchor="middle" font-size="10.5" fill="#6b7280">groomed · claimable</text>

    <rect x="436" y="130" width="168" height="52" rx="9" fill="#e6f0ff" stroke="#2563eb" stroke-width="2"/>
    <text x="520" y="153" text-anchor="middle" font-size="14.5" font-weight="700" fill="#11182a">in_progress</text>
    <text x="520" y="171" text-anchor="middle" font-size="10.5" fill="#6b7280">assignee = owner</text>

    <rect x="634" y="130" width="168" height="52" rx="9" fill="#e6f0ff" stroke="#2563eb" stroke-width="2"/>
    <text x="718" y="153" text-anchor="middle" font-size="14.5" font-weight="700" fill="#11182a">review</text>
    <text x="718" y="171" text-anchor="middle" font-size="10.5" fill="#6b7280">peer review · author ≠ reviewer</text>

    <rect x="832" y="130" width="168" height="52" rx="9" fill="#e7f7ec" stroke="#1f9d57" stroke-width="2"/>
    <text x="916" y="153" text-anchor="middle" font-size="14.5" font-weight="700" fill="#11182a">done</text>
    <text x="916" y="171" text-anchor="middle" font-size="10.5" fill="#6b7280">merged / shipped</text>
  </g>

  <!-- state arrows -->
  <g stroke="#475569" stroke-width="2" fill="none">
    <line x1="208" y1="156" x2="236" y2="156" marker-end="url(#ah)"/>
    <line x1="406" y1="156" x2="434" y2="156" marker-end="url(#ah)"/>
    <line x1="604" y1="156" x2="632" y2="156" marker-end="url(#ah)"/>
    <line x1="802" y1="156" x2="830" y2="156" marker-end="url(#ah)"/>
  </g>
  <g font-size="9.5" fill="#475569" text-anchor="middle">
    <text x="222" y="150">groom</text>
    <text x="420" y="150">claim</text>
    <text x="618" y="150">finish</text>
    <text x="816" y="150">approve</text>
  </g>

  <!-- blocked -->
  <rect x="436" y="248" width="168" height="46" rx="9" fill="#fdecea" stroke="#e0483b" stroke-width="2"/>
  <text x="520" y="267" text-anchor="middle" font-size="13.5" font-weight="700" fill="#11182a">blocked</text>
  <text x="520" y="283" text-anchor="middle" font-size="10" fill="#6b7280">stuck on external input</text>
  <g stroke="#e0483b" stroke-width="2" fill="none">
    <line x1="520" y1="182" x2="520" y2="246" marker-end="url(#ah)"/>
    <path d="M436,271 C 360,271 322,230 322,184" marker-end="url(#ah)"/>
  </g>
  <text x="540" y="218" font-size="9.5" fill="#e0483b">stuck</text>
  <text x="350" y="232" font-size="9.5" fill="#e0483b">unblock</text>

  <!-- red operator -->
  <rect x="1022" y="128" width="148" height="56" rx="9" fill="#fdecea" stroke="#e0483b" stroke-width="2"/>
  <text x="1096" y="151" text-anchor="middle" font-size="14.5" font-weight="800" fill="#11182a">red</text>
  <text x="1096" y="169" text-anchor="middle" font-size="10" fill="#6b7280">operator · escalation</text>
  <path d="M604,266 C 820,266 980,210 1020,180" stroke="#e0483b" stroke-width="2" fill="none" marker-end="url(#ah)"/>
  <text x="838" y="248" font-size="10" font-weight="600" fill="#e0483b">escalate — blocked tickets only</text>

  <!-- ================= 2. THE AGENTS ================= -->
  <text x="40" y="330" font-size="14.5" font-weight="700" fill="#1f9d57">2 · THE AGENTS — each runs the pull loop every 10 minutes</text>

  <!-- pull arrows agents -> pool -->
  <path d="M280,348 C 240,300 215,250 212,210" stroke="#1f9d57" stroke-width="2.5" fill="none" marker-end="url(#ah)"/>
  <path d="M920,348 C 700,300 420,232 320,210" stroke="#1f9d57" stroke-width="2.5" fill="none" marker-end="url(#ah)"/>
  <text x="250" y="300" font-size="10" font-weight="700" fill="#1f9d57">pull</text>
  <text x="690" y="276" font-size="10" font-weight="700" fill="#1f9d57">pull</text>

  <!-- Ares box -->
  <rect x="40" y="348" width="500" height="208" rx="11" fill="#e9f8ef" stroke="#1f9d57" stroke-width="2"/>
  <text x="64" y="382" font-size="20" font-weight="800" fill="#11182a">ARES</text>
  <text x="64" y="402" font-size="10.5" fill="#4b5563">Hermes gateway · kanban-pull-loop cron · every 10m · posts to #ares</text>
  <text x="64" y="416" font-size="10.5" fill="#4b5563">brain: ~/.hermes/ROLE.md</text>
  <line x1="56" y1="426" x2="524" y2="426" stroke="#bfe6cd" stroke-width="1.5"/>
  <text x="64" y="447" font-size="11" font-weight="700" fill="#1f7a4d">PULL LOOP — stop at first match:</text>
  <text x="64" y="469" font-size="11" fill="#2d3748">1 · advance my own in_progress / review ticket</text>
  <text x="64" y="489" font-size="11" fill="#2d3748">2 · else review a peer's ticket I did not author</text>
  <text x="64" y="509" font-size="11" fill="#2d3748">3 · else claim top ready / triage from the pool</text>
  <text x="64" y="529" font-size="11" fill="#2d3748">4 · never idle — groom triage, unblock cleared</text>
  <text x="64" y="548" font-size="10" font-style="italic" fill="#6b7280">escalates to red only by setting `blocked` + reason</text>

  <!-- Clawta box -->
  <rect x="660" y="348" width="500" height="208" rx="11" fill="#e9f8ef" stroke="#1f9d57" stroke-width="2"/>
  <text x="684" y="382" font-size="20" font-weight="800" fill="#11182a">CLAWTA</text>
  <text x="684" y="402" font-size="10.5" fill="#4b5563">openclaw gateway · kanban-pull-loop cron · every 10m</text>
  <text x="684" y="416" font-size="10.5" fill="#4b5563">brain: openclaw cron payload</text>
  <line x1="676" y1="426" x2="1144" y2="426" stroke="#bfe6cd" stroke-width="1.5"/>
  <text x="684" y="447" font-size="11" font-weight="700" fill="#1f7a4d">PULL LOOP — stop at first match:</text>
  <text x="684" y="469" font-size="11" fill="#2d3748">1 · advance my own in_progress / review ticket</text>
  <text x="684" y="489" font-size="11" fill="#2d3748">2 · else review a peer's ticket I did not author</text>
  <text x="684" y="509" font-size="11" fill="#2d3748">3 · else claim top ready / triage from the pool</text>
  <text x="684" y="529" font-size="11" fill="#2d3748">4 · never idle — groom triage, unblock cleared</text>
  <text x="684" y="548" font-size="10" font-style="italic" fill="#6b7280">+ owns the worker-dispatch pipeline (below)</text>

  <!-- claim-verify badge -->
  <rect x="556" y="402" width="88" height="116" rx="13" fill="#fff7e6" stroke="#f59e0b" stroke-width="2"/>
  <text x="600" y="430" text-anchor="middle" font-size="11.5" font-weight="800" fill="#b45309">CLAIM</text>
  <text x="600" y="445" text-anchor="middle" font-size="11.5" font-weight="800" fill="#b45309">VERIFY</text>
  <text x="600" y="468" text-anchor="middle" font-size="9" fill="#7c5a12">claim →</text>
  <text x="600" y="481" text-anchor="middle" font-size="9" fill="#7c5a12">re-read →</text>
  <text x="600" y="494" text-anchor="middle" font-size="9" fill="#7c5a12">yield if</text>
  <text x="600" y="507" text-anchor="middle" font-size="9" fill="#7c5a12">already taken</text>

  <!-- ================= 3. CODE WORK ================= -->
  <text x="40" y="600" font-size="14.5" font-weight="700" fill="#7c5cd6">3 · CODE WORK — fans out to worker CLIs via the controller</text>

  <rect x="40" y="612" width="300" height="56" rx="9" fill="#f3f0fc" stroke="#7c5cd6" stroke-width="2"/>
  <text x="190" y="636" text-anchor="middle" font-size="11.5" font-weight="700" fill="#11182a">agent assigns code ticket</text>
  <text x="190" y="653" text-anchor="middle" font-size="10" fill="#6b7280">to a driver lane</text>

  <rect x="382" y="612" width="356" height="56" rx="9" fill="#f3f0fc" stroke="#7c5cd6" stroke-width="2"/>
  <text x="560" y="636" text-anchor="middle" font-size="11.5" font-weight="700" fill="#11182a">swarm-controller</text>
  <text x="560" y="653" text-anchor="middle" font-size="10" fill="#6b7280">dispatches driver-lane tickets · spawns worker in a worktree</text>

  <g>
    <rect x="780" y="612" width="120" height="56" rx="9" fill="#ede9fc" stroke="#7c5cd6" stroke-width="2"/>
    <text x="840" y="639" text-anchor="middle" font-size="12" font-weight="700" fill="#11182a">codex</text>
    <text x="840" y="655" text-anchor="middle" font-size="9" fill="#6b7280">worker CLI</text>
    <rect x="916" y="612" width="120" height="56" rx="9" fill="#ede9fc" stroke="#7c5cd6" stroke-width="2"/>
    <text x="976" y="639" text-anchor="middle" font-size="12" font-weight="700" fill="#11182a">copilot</text>
    <text x="976" y="655" text-anchor="middle" font-size="9" fill="#6b7280">worker CLI</text>
    <rect x="1052" y="612" width="120" height="56" rx="9" fill="#ede9fc" stroke="#7c5cd6" stroke-width="2"/>
    <text x="1112" y="639" text-anchor="middle" font-size="12" font-weight="700" fill="#11182a">gemini</text>
    <text x="1112" y="655" text-anchor="middle" font-size="9" fill="#6b7280">worker CLI</text>
  </g>

  <g stroke="#7c5cd6" stroke-width="2" fill="none">
    <line x1="340" y1="640" x2="380" y2="640" marker-end="url(#ah)"/>
    <line x1="738" y1="640" x2="778" y2="640" marker-end="url(#ah)"/>
  </g>
  <!-- agents feed code work down -->
  <path d="M190,556 C 190,580 190,590 190,610" stroke="#7c5cd6" stroke-width="2" fill="none" marker-end="url(#ah)"/>
  <text x="200" y="588" font-size="9.5" fill="#7c5cd6">code tickets</text>
  <!-- worker output back to review -->
  <path d="M976,610 C 976,580 800,250 800,186" stroke="#94a3b8" stroke-width="1.6" fill="none" stroke-dasharray="5 4" marker-end="url(#ah)"/>
  <text x="1000" y="430" font-size="9.5" fill="#94a3b8">worker opens PR → review</text>

  <!-- ================= footer ================= -->
  <rect x="40" y="694" width="1130" height="116" rx="10" fill="#eef1f5" stroke="#d4dae2" stroke-width="1.5"/>
  <text x="58" y="717" font-size="12" font-weight="700" fill="#11182a">How it holds together</text>
  <text x="58" y="738" font-size="10.5" fill="#374151">• Source of truth: the kanban DB — status is the state, not agent memory.  Canonical spec: docs/strategy/chitin-kanban-operating-model.md</text>
  <text x="58" y="757" font-size="10.5" fill="#374151">• Assignee = current owner of in-flight work, never a permanent lane.  ready/triage with no assignee = the open pool.</text>
  <text x="58" y="776" font-size="10.5" fill="#374151">• Oversized tickets: the auto-decomposer splits them into subtasks, dispatched by the Hermes gateway.</text>
  <text x="58" y="795" font-size="10.5" fill="#9a3a30">• Retired: priority lanes (P0/P1 vs P2/P3) and the hermes-clawta-bridge pre-claim — both superseded by the pull loop + claim-verify.</text>
</svg>
